<mxfile host="app.diagrams.net" modified="2022-05-31T03:50:39.078Z" agent="5.0 (X11; Linux x86_64) AppleWebKit/537.36 (KHTML, like Gecko) Chrome/101.0.4951.64 Safari/537.36" etag="X6IxlrEKUfcb1rdYJBHg" version="18.1.3" type="github">
  <diagram id="Pyuc4MkIqyapO2htJeJZ" name="Page-1">
    <mxGraphModel dx="1209" dy="717" grid="1" gridSize="10" guides="1" tooltips="1" connect="1" arrows="1" fold="1" page="1" pageScale="1" pageWidth="850" pageHeight="1100" math="0" shadow="0">
      <root>
        <mxCell id="0" />
        <mxCell id="1" parent="0" />
        <mxCell id="1sVfToDeM2gLL0yp65pP-1" value="Powerarena Standalone" style="rounded=1;whiteSpace=wrap;html=1;" vertex="1" parent="1">
          <mxGeometry x="240" y="360" width="120" height="60" as="geometry" />
        </mxCell>
        <mxCell id="1sVfToDeM2gLL0yp65pP-2" value="Ansible" style="rounded=1;whiteSpace=wrap;html=1;" vertex="1" parent="1">
          <mxGeometry x="580" y="360" width="120" height="60" as="geometry" />
        </mxCell>
        <mxCell id="1sVfToDeM2gLL0yp65pP-3" value="" style="endArrow=classic;html=1;rounded=0;exitX=0.5;exitY=0;exitDx=0;exitDy=0;entryX=0.5;entryY=1;entryDx=0;entryDy=0;" edge="1" parent="1" source="1sVfToDeM2gLL0yp65pP-2" target="1sVfToDeM2gLL0yp65pP-5">
          <mxGeometry width="50" height="50" relative="1" as="geometry">
            <mxPoint x="400" y="390" as="sourcePoint" />
            <mxPoint x="930" y="350" as="targetPoint" />
          </mxGeometry>
        </mxCell>
        <mxCell id="1sVfToDeM2gLL0yp65pP-4" value="" style="endArrow=classic;html=1;rounded=0;exitX=0.5;exitY=0;exitDx=0;exitDy=0;entryX=0.5;entryY=1;entryDx=0;entryDy=0;" edge="1" parent="1" source="1sVfToDeM2gLL0yp65pP-1" target="1sVfToDeM2gLL0yp65pP-5">
          <mxGeometry width="50" height="50" relative="1" as="geometry">
            <mxPoint x="400" y="390" as="sourcePoint" />
            <mxPoint x="600" y="240" as="targetPoint" />
          </mxGeometry>
        </mxCell>
        <mxCell id="1sVfToDeM2gLL0yp65pP-5" value="Prod env" style="rounded=0;whiteSpace=wrap;html=1;" vertex="1" parent="1">
          <mxGeometry x="425" y="210" width="120" height="60" as="geometry" />
        </mxCell>
        <mxCell id="1sVfToDeM2gLL0yp65pP-10" value="" style="group" vertex="1" connectable="0" parent="1">
          <mxGeometry x="920" y="330" width="110" height="110" as="geometry" />
        </mxCell>
        <mxCell id="1sVfToDeM2gLL0yp65pP-6" value="" style="ellipse;whiteSpace=wrap;html=1;aspect=fixed;gradientColor=none;" vertex="1" parent="1sVfToDeM2gLL0yp65pP-10">
          <mxGeometry width="80" height="80" as="geometry" />
        </mxCell>
        <mxCell id="1sVfToDeM2gLL0yp65pP-7" value="" style="ellipse;whiteSpace=wrap;html=1;aspect=fixed;gradientColor=none;" vertex="1" parent="1sVfToDeM2gLL0yp65pP-10">
          <mxGeometry x="10" y="10" width="80" height="80" as="geometry" />
        </mxCell>
        <mxCell id="1sVfToDeM2gLL0yp65pP-8" value="" style="ellipse;whiteSpace=wrap;html=1;aspect=fixed;gradientColor=none;" vertex="1" parent="1sVfToDeM2gLL0yp65pP-10">
          <mxGeometry x="20" y="20" width="80" height="80" as="geometry" />
        </mxCell>
        <mxCell id="1sVfToDeM2gLL0yp65pP-9" value="Client" style="ellipse;whiteSpace=wrap;html=1;aspect=fixed;gradientColor=none;" vertex="1" parent="1sVfToDeM2gLL0yp65pP-10">
          <mxGeometry x="30" y="30" width="80" height="80" as="geometry" />
        </mxCell>
        <mxCell id="1sVfToDeM2gLL0yp65pP-11" value="" style="endArrow=classic;html=1;rounded=0;exitX=1;exitY=0.5;exitDx=0;exitDy=0;entryX=0;entryY=0.5;entryDx=0;entryDy=0;" edge="1" parent="1" source="1sVfToDeM2gLL0yp65pP-2" target="1sVfToDeM2gLL0yp65pP-8">
          <mxGeometry width="50" height="50" relative="1" as="geometry">
            <mxPoint x="400" y="390" as="sourcePoint" />
            <mxPoint x="450" y="340" as="targetPoint" />
          </mxGeometry>
        </mxCell>
      </root>
    </mxGraphModel>
  </diagram>
</mxfile>
